<svg width="49" height="49" viewBox="0 0 49 49" fill="none" xmlns="http://www.w3.org/2000/svg">
<g id="Message circle">
<path id="Icon" d="M42.5 23.5352C42.5069 26.1749 41.8901 28.779 40.7 31.1352C39.2889 33.9587 37.1195 36.3336 34.4349 37.9938C31.7503 39.654 28.6565 40.534 25.5 40.5352C22.8603 40.5421 20.2562 39.9254 17.9 38.7352L6.5 42.5352L10.3 31.1352C9.10986 28.779 8.49312 26.1749 8.5 23.5352C8.50122 20.3787 9.38122 17.2849 11.0414 14.6003C12.7017 11.9157 15.0765 9.74635 17.9 8.33521C20.2562 7.14508 22.8603 6.52833 25.5 6.53521H26.5C30.6687 6.7652 34.6061 8.52474 37.5583 11.4769C40.5105 14.4291 42.27 18.3665 42.5 22.5352V23.5352Z" stroke="white" stroke-width="4" stroke-linecap="round" stroke-linejoin="round"/>
</g>
</svg>
