<svg width="49" height="49" viewBox="0 0 49 49" fill="none" xmlns="http://www.w3.org/2000/svg">
<g id="Table">
<path id="Icon" d="M18.5 6.53516H10.5C9.43913 6.53516 8.42172 6.95658 7.67157 7.70673C6.92143 8.45687 6.5 9.47429 6.5 10.5352V18.5352M18.5 6.53516H38.5C39.5609 6.53516 40.5783 6.95658 41.3284 7.70673C42.0786 8.45687 42.5 9.47429 42.5 10.5352V18.5352M18.5 6.53516V42.5352M6.5 18.5352V38.5352C6.5 39.596 6.92143 40.6134 7.67157 41.3636C8.42172 42.1137 9.43913 42.5352 10.5 42.5352H18.5M6.5 18.5352H42.5M42.5 18.5352V38.5352C42.5 39.596 42.0786 40.6134 41.3284 41.3636C40.5783 42.1137 39.5609 42.5352 38.5 42.5352H18.5" stroke="white" stroke-width="4" stroke-linecap="round" stroke-linejoin="round"/>
</g>
</svg>
